# xmcd
# Copyright (C) 1995-1998 Ti Kan
#
# Track frame offsets:
#       150
#       13683
#       29993
#       51000
#       65480
#       77575
#       93653
#       109288
#       114948
#       126255
#       143428
#
# Disc length: 2186 seconds
#
# Revision: 0
# Processed by: cddbd v1.5.2PL0 Copyright (c) Steve Scherf et al.
# Submitted via: CD-Import v1.0
#
DISCID=9408880b
DTITLE=Zero In On - Silly Lilly
DYEAR=1900
DGENRE=
TTITLE0=Silly Lilly
TTITLE1=Los Angeles Is Burning
TTITLE2=Cherry Blossom
TTITLE3=Monday Funday
TTITLE4=Welcome To The Moon
TTITLE5=My Black Guitar
TTITLE6=Boom Boom Baby
TTITLE7=Sgt. Dylan Sand
TTITLE8=Sgt. Dylan Sand
TTITLE9=Coloured Wall
TTITLE10=Words
EXTD=
EXTT0=
EXTT1=
EXTT2=
EXTT3=
EXTT4=
EXTT5=
EXTT6=
EXTT7=
EXTT8=
EXTT9=
EXTT10=
PLAYORDER=
